<svg xmlns="http://www.w3.org/2000/svg" width="28.631" height="48.977" viewBox="0 0 28.631 48.977"><path d="M41.239,31.308a2.371,2.371,0,0,0-3.516-.365,40.361,40.361,0,0,1-5.04,3.434c-.543-1.812-.778-4.232-1.216-6.189L31.5,17s6.073-.8,7.826-1.068a2.076,2.076,0,0,0,1.756-2.97c-.1-.28-2.536-7.265-2.961-8.614a2.337,2.337,0,0,0-2.988-1.7C33.8,3.021,33.4,4.313,33.8,5.639c.569,1.854,2.085,6.336,2.085,6.336l-5.32.718-8.6-1.85a14.791,14.791,0,0,1-4.112-8.668A2.234,2.234,0,0,0,15.226.023a2.391,2.391,0,0,0-1.995,2.831,20.941,20.941,0,0,0,7.215,13.632V27.56c-2.674,6.837-2.706,13.893,1.236,20.156a2.695,2.695,0,1,0,4.561-2.871,16.243,16.243,0,0,1-2.1-12.577,1.678,1.678,0,0,1,1.7-1.312h0a1.674,1.674,0,0,1,1.574,1.3c.48,2.1.717,4.139,1.08,5.413a3.3,3.3,0,0,0,4.779,2.1,47.993,47.993,0,0,0,7.544-4.681A2.673,2.673,0,0,0,41.239,31.308Z" transform="translate(-13.205 0)" fill="#021f2d"/><circle cx="4.132" cy="4.132" r="4.132" transform="translate(9.703 2.274)" fill="#021f2d"/></svg>